<?xml version="1.0" encoding="utf-8"?>
<!-- Generator: Adobe Illustrator 19.2.1, SVG Export Plug-In . SVG Version: 6.00 Build 0)  -->
<svg version="1.1" id="layer" xmlns="http://www.w3.org/2000/svg" xmlns:xlink="http://www.w3.org/1999/xlink" x="0px" y="0px"
	 viewBox="0 0 652 652" style="enable-background:new 0 0 652 652;" xml:space="preserve">
<style type="text/css">
	.st0{fill:#006C66;}
	.st1{fill-rule:evenodd;clip-rule:evenodd;fill:#006C66;}
	.st2{fill:none;stroke:#006C66;stroke-width:1.2534;stroke-miterlimit:10;}
</style>
<g>
	<path class="st0" d="M102.3,290c0,120.1,97.7,217.8,217.8,217.8c120.1,0,217.8-97.7,217.8-217.8c0-120.1-97.7-217.8-217.8-217.8
		C200,72.2,102.3,169.9,102.3,290 M108.4,290c0-116.7,95-211.7,211.7-211.7c116.7,0,211.7,95,211.7,211.7
		c0,116.7-95,211.7-211.7,211.7C203.4,501.7,108.4,406.7,108.4,290"/>
	<path class="st0" d="M380.5,421c-5.3,18.3-7.8,27.8,0.5,46.7c0.1,0.7,0.9,3.1,0,3.4c-9.1-1.8-11.6-2.6-20.1-3.3
		c-7.9-1.4-21.1,0.8-29.9,0.8c-6.9,0.2-13.9,0.5-21.1,1.4c-2.2-1.1-0.5-3.5-0.3-5.1c0.8-2.5,0.9-3.8,1.1-6.6
		c1.1-1.2,2.5-0.6,3.8-1.1c4.6-0.7,8.6-4.8,9.7-9.1c1.4-4.6-0.2-9.6-2.2-13.9c-0.4-1.3-2.2-2.2-1.4-3.5c5.7-10.7,1.7-21.5-0.2-31.9
		c-2-7.4-5-15.5-6.3-23.3c0.2-0.8-0.8-2.6,1-2.8l0.6,0.2c6.1,7.4,23.5,23,30,28c6.5,5.1,23.4,14.9,34.3,17.5
		C381.1,419,380.9,419.8,380.5,421 M299.5,439.9c0-1,0.1-1.4,0.8-1.7h4c3.5,0.1,8,1.3,11.3-2.1c1.9,0.1,2.1,2.3,2.6,4.1
		c0.5,2.4,0.3,4,0.3,6.1c-0.8,1.7-1.7,4.4-3.5,5.5c-2.8,1.3-5.7,1.1-8.4,0C302.4,449.3,299.4,445.4,299.5,439.9 M306.2,460.1
		c-0.5,4.8-6.5,9-9.4,9.8c-2.9,0.8-11.7,0.4-14.3-0.4c-2.5-0.9-8.7-12.9-8-19.2c0-5.2,1.4-13.3,3.5-14c2.1-0.6,7.6-0.3,7.6-0.3
		c2.3-0.2,4,0.4,6,0.6c1.4,0.5,0.4,2.3,0.9,3.4c0.6,2.7,0.8,5.5,2.5,8.2c2.3,4.5,6.5,7.1,10.7,8.7
		C306.7,457.7,306.1,458.9,306.2,460.1 M272.1,468.3c-1.6,1.7-2.5,0.9-4.2,1.1c-4.7-1.3-7.5-3.3-8.8-8.7c-1.7-7.4-1.7-15.6,0-23.2
		l0.8-0.6c3.3-0.4,8.3-1.1,9.7-0.3c1.4,0.7-1.5,14.1-1.5,14.1c-0.1,2.7,1.2,9.4,2.4,13C270.7,464.2,273.4,466.9,272.1,468.3
		 M327.8,309.6l-0.2,4.6c-0.4,4.2-2.3,9-6.3,11.3c-2.3-0.6-1.5-3.4-2.1-5.3c1.5-4.2,4.4-7.6,6.8-11.3c0.3-0.2,0.7-0.4,1-0.2
		L327.8,309.6z M361.7,272.8c-2.4,1.1-4.9,1.4-7.6,0.1c-0.7-0.9-2.9-1.7-2-3c1.9-3.2,5.2-5.8,7.3-8.9l0.9-0.5
		c4.1-5,10.6-9.1,16.7-12.8l3.7-1.6c0.8-0.8,2.7-2.5,3.4-0.7c0.1,6.5-2.6,13.4-8.7,17.9c-3.7,2.8-5.3,2.2-8.7,2.4l-1.7,3.1
		C364.6,270.3,363.3,271.9,361.7,272.8 M348.4,333.7c-1.1,0.6-10.8-3-9.7-2c-2.3-2.5,1.5-3.3-7.1-6.5l-2.1,0.2
		c-0.3,0.2-1,0.6-1.8-0.4c-0.1-1.3,1.6-1.1,2.1-2.7c3.1-6.9,1.4-12.2,1.1-19.3l2.3-5.8c4.3-5.2,4.3-5.9,7.2-8.7
		c2.9-4.1,3.5-4.4,7.4-7.8c0.6-0.5,1.8-1,2.6-0.3c1.8,1.4,1.9,2.4,2.5,4.2c0.9,6.8-3.2,11.5-8.2,15.2c-3.5,3-6.9,7.8-6.1,12.4
		l0.3,0.3c1.6-1.4,3.6-2.1,4.3-3.8c2.7-6,9.9-8.7,14-13.9c1.8-3.1,0.7-8.5,0-12.1c0,0.1,5.3-2.5,3.9-1.6c2.5,1,2.2,2.8,3.4,5.2
		c2.4,6,2.2,11.4-1.5,16.6l-10.1,12.6C352.8,321.7,354.6,329.9,348.4,333.7 M391.2,237.9l0.7-0.9c3.1-1.5,6.1-2.6,9.5-3.6l4.2-1.1
		c1.1-1,3.1-1.8,4.2-0.4c0.1,5.4-4,11.9-9.9,14.4c-1.9,0.8-4.4,1.1-6.6,1.6c-0.6-0.5-2.4,0.5-2.9-0.8
		C390.6,244.4,391.6,240.3,391.2,237.9 M431.4,227.8c-0.2,3.9-5.4,7.1-9.7,8.3c-1.8,0.3-3.6,0.2-5.2,0.2c-0.4-0.3-0.9-0.7-0.8-1.1
		c0.3-1.8,0.6-2.9,0.7-4.6l1.1-0.8c3.8-0.8,8.5-1.6,12.3-2.6C430.3,227.3,431,227.3,431.4,227.8 M307.9,305.4
		c11.2-20.1,24.8-37.5,39.4-55.5l20.4-23.2c14.6-15.5,30.7-31.5,48.5-43.8c2.2-1.3,3.2-3.9,5.5-2.1l2.1,1.9c1.4,1.6,0.2,6.1-1.3,7.4
		c-1.2,0.9-2.3,1.9-3.4,2.8c3.5,3.4,8.5,10,12.6,14.2c1.8,1.9,1.2,3.8,4.5,5.3c1.6,0.8,2.1,2.5,1.1,4c-2.9,3.7-7.7,3.1-11.4,4.1
		c-14,3.1-25.3,7.1-40.8,14.6c-12.4,6.6-22.3,13.8-31.3,25.1c-3.4,4.2-7.3,7.4-10.2,12.6c-8.2,10.5-14.7,20.3-21.1,31.1
		c-2.3,3.4-3.1,5.1-6.3,8.2c-1.6,1.5-3-1.6-4-2.7c-0.1-0.1-0.2-0.3-0.3-0.4c-0.3,0-0.7,0-1-0.2C310.2,307.9,307.4,307.4,307.9,305.4
		 M437.8,230.5c-0.4,0.5-1,1-1.8,0.8c-1.7-1.2-1.1-2.7-1-4.1c0.3-0.3,0.4-0.5,1-0.5c0.8-0.1,1.3,0.5,1.6,0.9
		C438.1,228.4,438.2,229.5,437.8,230.5 M249.7,460.7c-3.3,0.1-5.6-1.7-7.1-5.6c-1.5-4.9-2-9.3-1-14.3c0.3-0.6,1.1-1,1.5-0.8l4.6-1.6
		c1.5-0.6,2.8-0.8,4.3-0.5l0.9,0.9c-0.1,2.7-0.7,4.6-0.8,7.1c-0.3,6.2-0.8,8,1,13.9C252.5,461.4,251.1,460.7,249.7,460.7
		 M236.1,443.4c-0.7,1.3-0.6,2.1-0.9,3.7c-0.4,0.7-2.4-0.3-3-0.6c-2.5-1.3-2.3-0.7-3-3c-0.4-1.5-0.4-3.4,2.2-4.7
		c1.6-0.9,4.8-2,5.8,0C237.4,440.1,235.8,441.9,236.1,443.4 M464.9,311.4c-5.8-13.3-12.2-24.7-17-38.1c-3.4-4.8-1.4-9.9-1.8-15
		c-2.2-8-5.5-14.2-8.7-21.9c-0.9-2.2,1.6-2.9,2.5-4.5c1.4-3.9,0.4-8.3-1.4-12.1c-0.7-2.2,1.8-3.7,1.4-5.9c-0.1-3.4-3.1-5.8-5.5-7.6
		c-3.6-5.2-5.3-7.9-9.8-12.7v-0.9c2.2-2,4.1-5.4,4-8.4c-0.9-3.4-1.6-6.5-4.8-8.8c-5.1-2.9-10.3,1.6-14.4,3.9
		c-1.1,0.8-1.7,1.6-3.3,1.4c-1-0.4-2.1-0.8-3.2-1.1c-1,1.2-2.3,2.5-3.9,3.7l5,2c0.2,0.1,0.2,0.2,0.2,0.4c0,0.1,0,0.3-0.1,0.4
		c-0.3,0.3-11.5,10.1-11.5,10.1c0,0-20.1,19.9-20.1,19.9c0,0-5.8,5.9-5.8,5.9c0,0-17.9,20.6-17.9,20.6
		c-9.3,10.8-23.1,28.6-31.4,41.6c-4.3,6-8.6,12.6-12.6,18.8c-0.4,0.7-1.3,0.6-2.5,0.5c-0.9-0.1-1.8-0.2-2.6,0.1h0l-0.2,0
		c0,0,0.1,0,0.1,0c-4.5,0.5-7.8,2-11.4,5.2c-4.6,5.4-6.9,11.9-6.9,19c0,4.8,1.1,10,3.3,15.1c-0.9,2.7-3.1,5.2-5,7.3l-1.1,1.2
		l-1.4,1.4c-0.9,0.9-1.9,1.8-2.7,2.8l-0.1,0.1l0,0.1c-0.1,0.3-0.1,0.9,0.8,1.3l0.2,0.1l0.2-0.1c4.2-1,6.9-4.2,9.5-7.3
		c0,0,1.6-1.9,1.9-2.1c0.4-0.1,0.7,0.1,1.3,0.6c0.3,0.2,0.6,0.5,1,0.7v0.2c0,0-0.1,1.4-0.1,1.7c-10,9.9-18.2,15.5-28.8,21.7l-1.8,1
		l2.1,0.2c4.2,0.4,8.1-1.9,11.9-4.2l4.6-2.5c4.2-2.2,8.2-5.5,12-8.7c0,0,3.4-2.9,3.8-3.2c0.4,0.1,0.8,0.5,1.1,0.9
		c0,0,0.2,0.2,0.4,0.4c0.1,0.1,3.2,6.3,3.4,6.7c-0.7,2.9-1,5.9-1,8.8c0,6.4,1.4,12.8,2.8,19c1.3,6.2,2.7,12.5,2.7,18.7
		c0,0.4,0,0.8,0,1.2c0,1.9-2.1,4.5-3.9,5.3c-4,0.7-8.8,0.7-14,0.8c-6.3,0.1-12.8,0.1-17.8,1.5c-1.6,0.2-3.5,0.7-5.3,1.2
		c-1.8,0.5-3.6,1-5.3,1.2l-0.2,0l-0.2,0.1l-0.6,0.4c-0.6,0.4-1.3,0.8-1.4,1.6c0,0.1,0,0.1,0,0.2c0,0.5,0.2,1,0.6,1.4
		c0.3,0.4,0.8,0.5,1.2,0.5c1.5,0,3.2-0.6,4.8-1.2c1.1-0.4,2.3-0.9,3.4-1c10.4-1.8,21.9-1.4,29.6-0.8c3.8-0.1,10.1-0.2,12.4-5.6
		c0.8-2.2,1.1-4.2,1.1-6.2c0-2.2-0.3-4.3-0.7-6.4l-0.7-5.3c-0.5-3.2-1.1-6.4-1.8-9.5c-1.2-5.5-2.4-11.2-2.4-17
		c0-1.2,0.1-2.3,0.2-3.5c0.1-0.1,0.2-0.3,0.4-0.3c0.3,0,0.9,0.4,1.4,0.8c0.5,0.4,1.1,0.8,1.7,1c0.7,0.5,1.5,0.7,2.2,0.8
		c1,0.1,1.5,0.3,1.9,1c0.4,5.1,2.2,10.3,3.9,15.3c1.2,3.5,2.4,7.1,3.1,10.6c1.4,6.1,2.8,12.4,2.8,18.5c0,3.7-0.5,7.3-1.8,10.9
		c-2.7,4.9-8.5,4.9-14.2,4.9H301l-13.8-0.8c-11.9-0.9-24.2-1.7-36.8,0.3c0.1,0-2.8,0.3-2.8,0.3c-1.6,0.2-3,0.4-4.6,0.1
		c-0.6-0.5-1-1.3-1-2.1c0-0.3,0-0.5,0.2-0.8c2.3-5,3.4-9.4,3.4-13.4c0-3.2-0.7-6.1-2.2-8.6c-3.3-6.2-6.8-10.6-11.2-13.6
		c-5.4-5.4-10-10.2-14.1-14.9c-2.4-0.3-3.9-0.8-4-0.8l-0.5-0.2l-2.4,3c3.1,3,6,5.9,9.5,9.1c5.4,2.9,9.7,8.1,13.5,11.6
		c4.6,5.4,5.8,11.2,4.8,17.6c-0.6,7.6-7.6,10.9-12.3,15.9c-1.9,3.6-3.1,7.9-0.5,11.3c1.7,4.5,8.9,3.7,9.8,7.4
		c2,8.1,16.1,12.8,18.8,13c2.7,0.2,5.6,3.2,5.6,3.2c5.6,4.1,13,3.1,16.8,2.5c3.9-0.6,10.8,2.5,15.1,1.9c6.5-2.6,11.8-1.4,18.5-1.9
		c21.1,0.3,45.1-0.2,66.8,2.6c4-0.5,8.8,2.6,12.6,0.7c1-1.6,0.2-3,0-4.3c-10.3-16.2-11.9-34.5-6-52.2l3.9,0.2
		c14,1.5,26.8-0.3,41-8.5c7.1-3.9,10.9-13.1,10.5-19.7c-0.2-4.3-1.7-9.4-1-14c0.3-2,1.6-5.1,3.4-6.1c0.7-0.4,3.4-2.2,4.2-4.5
		c1.4-3.7-1.6-5.5-2.4-6c2.3-0.9,4.5-5.5,2.4-9.1c-1.3-1.4-2.9-7-3.1-8.9c-0.5-2.6-0.6-5.4,1.9-7c5.6-3,10.9-3.7,16.7-6.2
		c4-1.7,6.1-5.8,5.9-9.6L464.9,311.4z M463.2,325.4c-5.9,5.5-14.3,5.6-21.1,10.1c-3.1,3.1-2.3,6.7-1.1,10.6c2.5,5,1.6,4.5-1.9,5.6
		c-8.2,2.7-8.1,11.7-18,10.2c-0.6,0.2-2.9-1-1.5,0.7c1.1,1.3,1.5,0.5,3.6,0.8c3.5,0.2,4.8-1.3,7.3-3c3.5-3,3.1-4.1,7.4-6.2
		c1-0.2,3.6-1,5-0.5c1,0.9,1,0.9,1.1,1.7c-0.6,2.4-4.1,4.4-5.4,5.2c1.8,1.4,5.3,3.6,4.7,5.6c-0.8,1.3-0.8,1.5-2.1,2.1
		c-1.9,0.9-5.9,0.8-9.5-1.9c-0.6,0.2-1.2-1.1-2.7,0.4c3.6,3.7,8.6,2.9,9.4,3.6c0.8,0.8-2.7,5.2-2.8,6.2c-2.4,6.4,0.5,12.3-0.7,18.9
		c-0.8,5.2-2.3,7.7-6.9,10.9c-8.3,5.8-14.2,7.5-23.6,9c-24.6,1.7-40.1-6.8-57.8-20c-17.7-13.2-24.5-20.2-30-27.7
		c-0.1-3,2.2-5.4,0.2-8.6c-1.6,0.6-1.4,2.6-2.4,3.8c-1.4,1.9-4.6,3.4-7,3.1c-7.3-2.5-7.7-11-12.2-15.9c-9.8-9.6-12.5-23.5-7.3-35.1
		c1.8-3.6,5.1-7,8.8-8.3c4.5-0.7,9.9-0.7,12.9,3.7c3.5,3.4,5.7,8.8,6.6,13.6c1.4,2.3-0.3,5,2.1,6.9c4.2,0.4,7.8,1.4,11.8-1.1
		c3,0.4,3.4,3.7,5.6,5.1l4,2.4c4.2,1.8,9.7,1.8,13.3-1.4c6.7-6.9,5.3-14,7.6-21.6c6.4-5.7,10.7-13.8,10.6-21.7
		c-0.4-4.9-2.2-9.9-5-14.8c0.5-2.9,2.1-5,3-7.6c0.8-0.5,1.8-0.5,2.7-0.6c7.1-1.5,13.6-8,16.4-14.8l0.6-0.6c8.2-0.6,18.3-3.4,23.1-12
		c1-3.7,5.1-1,7.7-1.8c4.3-0.2,8.6-2.6,11.9-5.4c1-0.3,1.7,0.7,2.2,1.2c1.9,6.4,5.4,12.6,7.4,19.1c2.5,4.9,3.4,9.5,2.5,14.5
		c1,7.6,5.4,14.7,8.4,22.4c3,8.1,7.8,16.3,11.2,24.6C463.9,320,465.3,322.7,463.2,325.4"/>
	<path class="st0" d="M426.8,261.6c1.1,1.4,1.8,2.7,1,4.1c-2.1,0.2-2.4-2.5-4.2-3.4c-2.9-1.4-5.4,0.1-8.3,0.8
		c-7.3,3.1-13.4,9.4-20.4,12.6c-0.9,0-1.7-0.1-2.2-0.7c1.2-1.2,3.1-1.4,4.6-2.4c7.3-4.8,14.3-12.3,23.4-13.7
		C423.1,258.8,425.3,259.7,426.8,261.6"/>
	<path class="st0" d="M419.8,288.2c-1.1,1.7-2.9,0.2-4.5,0.4c-3.6-0.4-9.7,0.4-13.7-0.1c-0.6-0.3-1-1-0.7-1.5c0.6-1,2.3-1,3.3-1.8
		c4.4-2.7,8.9-5.3,13.9-6.5c0.9-0.1,1.6,0.6,1.8,1.3C420.6,282.2,420.2,285.9,419.8,288.2 M426.2,273.9c-0.6-1.8-0.5-4.6-2.6-5
		c-0.5,1.1,0,2.3-0.5,3.4c-0.6,0.8-1.8,1.8-3,1.4c-8.8,0.6-15.4,8.3-22.9,12.3c-2.6,1.4-5.4,2.3-8.2,3c-0.2,0.4-0.2,1,0.2,1.2
		c8.3,0.9,16.6,1.7,24.8,2.6l9.2-1c0.2-1.2-1.2-2.2-1-3.6c1-3.8,1.4-7.8,0.3-11.4C423.4,274.8,426.1,276.3,426.2,273.9"/>
	<path class="st0" d="M430.9,315.2c0.3-0.4,0.6-0.9,1-0.9c0.5,0.2,0.8,0.4,0.9,1.4c-0.1,1.5-0.5,3.2-0.9,4.9c-0.5,2-1,4-1,5.9
		c0,0.9,0.1,1.7,0.3,2.6c1.2,1.4,2.9,1.8,5.1,1c0,0,3.6-2.1,3.6-2.1c3.1-1.9,6.1-3.6,11.6-5c0.1,0,0.2,0,0.2,0
		c0.1,0.1,0.1,0.3,0.1,0.6c0,0.5-0.1,1.1-0.4,1.6c-0.2,0.1-5.3,2.4-5.3,2.4c-4,1.7-8.1,3.6-12,5.8c-1.1,0.2-2.2-0.4-3.2-1l-0.3-0.1
		c-1.5-2-1.9-4-1.9-5.9c0-1.8,0.4-3.5,0.8-5.3c0.4-1.7,0.7-3.4,0.8-5.2C430.6,315.6,430.9,315.2,430.9,315.2"/>
	<path class="st0" d="M306.2,313.6c2.9,5.9-0.2,11.5,0,17.7c0.5,1.8,3.9,2,2.9,4.1c-0.8,0.6-1.9,0.7-2.8,0.1c-1.6-1-2.2-1.8-2.6-3.7
		c-0.4-5.4,3.9-11.8,0.1-16.9c-1.1-1.1-2.7-2.2-4.3-2.3c-3.4,0.6-5.2,4.3-6.4,7c-1.8,7.2-2.3,14.8,4,20.6c3.7,2.2,8.2,4.5,8.4,9.1
		c0.6,0.8,1.7,1.6,2.6,1.1c1.1-0.1,1.3-3.3,2.9-1.8l0.5,1.1c-0.4,1.3-0.8,3.5-2.9,3.6c-1,0.2-2.2-0.3-3-1c-2.2-2.3-0.5-5.8-4.3-7.4
		c-6.2-1.9-10.3-8.5-11-14.7c-0.4-5.9-0.2-12.4,5-17.6c2-1.5,4.6-2.5,7.2-1.7C303.9,311.3,305.5,312.3,306.2,313.6"/>
	<path class="st1" d="M229.1,359.3c8.3-3.9,17.8-3.4,21.4-3.1c-1,3.3-4.5,11.9-13.9,16.5c-9.5,4.7-17.6,3.5-20.6,2.9
		C217,372.3,220.7,363.2,229.1,359.3 M227.9,356.8c-11.4,5.3-14.9,18.9-15,19.4l-0.3,1.2l1.2,0.4c0.5,0.1,11,3.6,23.9-2.7
		c13-6.4,15.7-19.3,15.8-19.8l0.3-1.4l-1.4-0.2C251.9,353.7,239.1,351.6,227.9,356.8"/>
	<path class="st1" d="M240.4,333.7c8.3-3.7,17.3-3.3,20.8-2.9c-1.1,3.2-4.6,11.4-14,16c-9.4,4.5-17.5,3.6-20.6,3.1
		C227.9,346.5,232,337.5,240.4,333.7 M239.3,331.3c-11.4,5.2-15.6,18.6-15.8,19.2l-0.4,1.3l1.3,0.4c0.4,0.1,11,3.3,23.9-2.9
		c13.1-6.3,15.8-18.7,16-19.2l0.3-1.4l-1.4-0.2C262.7,328.3,250.5,326.2,239.3,331.3"/>
	<path class="st1" d="M255.2,309.1c8.3-3.6,16.8-3.1,20.2-2.7c-1.1,3.1-4.7,11-14.2,15.4c-9.3,4.3-17.3,3.7-20.6,3.2
		C242.2,321.6,246.9,312.7,255.2,309.1 M254.1,306.6c-11.4,5-16.4,18.3-16.6,18.9l-0.5,1.4l1.4,0.4c0.5,0.1,11,3,24-3.1
		c13.1-6.1,16-18.1,16.1-18.6l0.3-1.4l-1.4-0.3C277,303.8,265.4,301.7,254.1,306.6"/>
	<path class="st1" d="M269.9,284.8c8.2-3.5,16.4-3,19.6-2.6c-1.2,3.1-4.8,10.6-14.3,14.8c-9.2,4.2-17.2,3.8-20.5,3.4
		C256.5,296.9,261.6,288.3,269.9,284.8 M268.8,282.3c-11.4,4.9-17.1,18.1-17.4,18.6l-0.6,1.5l1.5,0.4c0.4,0.1,10.9,2.6,24-3.3
		c13.2-6,16.2-17.6,16.3-18l0.3-1.4l-1.4-0.3C291.1,279.7,280.2,277.4,268.8,282.3"/>
	<path class="st1" d="M290.3,260.4c8.2-3.4,15.9-2.8,19-2.4c-1.2,3-5,10.1-14.4,14.3c-9.2,4.1-17,3.9-20.5,3.5
		C276.5,272.3,282,263.9,290.3,260.4 M289.2,257.9c-11.5,4.8-17.9,17.8-18.1,18.4l-0.7,1.5l1.7,0.4c0.5,0.1,10.9,2.3,24-3.5
		c13.2-5.8,16.3-17,16.4-17.4l0.4-1.3l-1.4-0.3C311,255.5,300.6,253.2,289.2,257.9"/>
	<path class="st1" d="M312.7,236.9c8.1-3.3,15.4-2.7,18.4-2.3c-1.3,2.9-5.1,9.7-14.5,13.7c-9.1,3.9-16.9,3.9-20.4,3.7
		C298.5,248.5,304.5,240.3,312.7,236.9 M311.7,234.4c-11.5,4.6-18.6,17.6-18.9,18.1l-0.9,1.6l1.8,0.3c0.4,0.1,10.9,2,23.9-3.6
		c13.3-5.7,16.5-16.4,16.6-16.9l0.4-1.3l-1.3-0.3C332.9,232.2,323.2,229.8,311.7,234.4"/>
	<path class="st1" d="M336.7,214.7c8.1-3.2,14.9-2.6,17.8-2.1c-1.3,2.8-5.3,9.3-14.6,13.2c-9,3.7-16.7,4-20.3,3.8
		C322.1,226,328.5,217.9,336.7,214.7 M335.7,212.2c-11.5,4.5-19.4,17.3-19.7,17.9l-1,1.7l2,0.3c0.4,0.1,10.8,1.6,24-3.8
		c13.3-5.6,16.6-15.8,16.8-16.3l0.4-1.3l-1.3-0.4C356.4,210.2,347.2,207.7,335.7,212.2"/>
	<path class="st1" d="M361.6,194.2c8-3,14.4-2.4,17.2-1.9c-1.4,2.7-5.4,8.8-14.7,12.6c-8.9,3.6-16.5,4-20.2,3.9
		C346.7,205.2,353.5,197.3,361.6,194.2 M360.7,191.7c-11.5,4.4-20.1,17.1-20.5,17.6l-1.2,1.8l2.2,0.3c0.4,0.1,10.8,1.3,23.9-4
		c13.4-5.4,16.8-15.2,16.9-15.7l0.4-1.3l-1.3-0.4C380.8,189.9,372.2,187.3,360.7,191.7"/>
	<path class="st1" d="M387,175.9c7.9-2.9,14-2.3,16.6-1.8c-1.5,2.6-5.5,8.4-14.9,12.1c-8.8,3.4-16.3,4-20.1,4.1
		C371.7,186.5,378.9,178.9,387,175.9 M386,173.4c-11.6,4.3-20.9,16.8-21.2,17.4l-1.4,1.9l2.3,0.2c0.4,0,10.8,1,24-4.2
		c13.4-5.3,16.9-14.7,17.1-15.1l0.5-1.3l-1.3-0.4C405.6,171.8,397.7,169.1,386,173.4"/>
	<path class="st1" d="M203.3,355.6c0-0.4,0-0.8,0-1.2c0.6-9.3,5.6-17.4,7.6-20.4c2.3,2.4,7.9,9.2,7.9,19.1c0,0.4,0,0.8,0,1.2
		c-0.5,10.6-5.4,17.3-7.4,19.6C209.2,371.4,203.3,364.3,203.3,355.6 M209.7,331.1c-0.3,0.4-8.3,10.7-9.1,23.1
		c-0.8,12.6,9.5,22.2,9.9,22.6l0.9,0.8l0.9-0.8c0.3-0.3,8.5-8,9.1-22.4c0.6-14.5-9.5-23.1-9.9-23.5l-1.1-0.9L209.7,331.1z"/>
	<path class="st1" d="M218,328.1c0-0.8,0-1.6,0.1-2.4c0.2-1.4,0.4-2.8,0.8-4c2-7.3,6.1-13,7.9-15.3c1.9,2.3,6.2,8.3,6.2,16.8
		c0,1-0.1,2-0.2,3.1c-1.2,10.2-6.3,16.6-8.5,18.8C222.4,342.6,218,336,218,328.1 M225.8,303.4c-0.3,0.3-6.7,7.4-9.5,17.6
		c-0.4,1.4-0.7,2.9-0.8,4.4c-1.5,12.2,7.3,22.2,7.7,22.7l0.9,1l1-0.8c0.3-0.3,8.7-7.5,10.4-21.6c1.7-14.2-7.4-22.9-7.7-23.3l-1-0.9
		L225.8,303.4z"/>
	<path class="st1" d="M234.5,302.7c0-1.3,0.1-2.6,0.3-3.9c0.3-1.4,0.6-2.7,1-3.9c2.4-7.2,6.8-12.4,8.7-14.5
		c1.5,2.2,4.6,7.4,4.6,14.5c0,1.6-0.2,3.3-0.5,5.1c-2,9.8-7.2,15.8-9.5,18.1C237.6,315.6,234.5,309.6,234.5,302.7 M243.8,277.4
		c-0.3,0.3-7,6.6-10.5,16.7c-0.4,1.3-0.8,2.7-1.1,4.3c-2.1,11.8,5.2,22.2,5.5,22.7l0.8,1.1l1.1-0.9c0.4-0.3,8.9-7.1,11.6-20.7
		c2.8-13.8-5.2-22.7-5.6-23.1l-0.9-1L243.8,277.4z"/>
	<path class="st1" d="M252.8,279.3c0-1.9,0.2-3.8,0.7-5.7c0.3-1.4,0.7-2.7,1.2-3.7c2.9-7.1,7.5-11.8,9.5-13.7
		c1.2,2,3.2,6.3,3.2,12.1c0,2.2-0.3,4.6-1,7.2c-2.7,9.4-8.1,15.1-10.6,17.3C254.7,290.4,252.8,285.2,252.8,279.3 M263.6,253.1
		c-0.3,0.2-7.4,5.7-11.5,15.8c-0.5,1.2-0.9,2.5-1.3,4.1c-2.8,11.4,3.1,22.2,3.3,22.6l0.7,1.3l1.2-0.9c0.4-0.3,9-6.6,12.8-19.8
		c3.8-13.4-3.1-22.5-3.4-22.9l-0.8-1.1L263.6,253.1z"/>
	<path class="st1" d="M272.4,258.3c0-2.6,0.3-5.4,1.2-8.2c0.5-1.4,0.9-2.6,1.4-3.6c3.4-7,8.2-11.2,10.4-12.9
		c0.8,1.7,2.1,5.1,2.1,9.6c0,2.8-0.5,5.9-1.8,9.4c-3.4,8.9-9,14.4-11.6,16.6C273.4,267,272.4,262.9,272.4,258.3 M285.1,230.4
		c-0.3,0.2-7.7,4.9-12.5,14.9c-0.5,1.1-1,2.4-1.5,3.9c-3.4,11,0.9,22.1,1.1,22.6l0.6,1.5l1.4-0.9c0.4-0.3,9.2-6.2,14-19
		c4.9-13-1-22.3-1.2-22.7l-0.7-1.1L285.1,230.4z"/>
	<path class="st1" d="M293.2,239.9c0-3.6,0.5-7.8,2-11.7c0.5-1.4,1-2.5,1.6-3.4c3.9-6.8,8.9-10.6,11.2-12.1c0.5,1.4,1.2,3.9,1.2,7.2
		c0,3.2-0.6,7.1-2.7,11.5c-4.1,8.6-9.8,13.7-12.6,15.8C293.6,245.5,293.2,242.9,293.2,239.9 M308,209.5c-0.3,0.2-7.9,4-13.6,13.9
		c-0.6,1.1-1.2,2.3-1.7,3.8c-4.1,10.6-1.2,22.1-1.1,22.6l0.4,1.8l1.6-0.9c0.4-0.2,9.4-5.8,15.3-18.1c6-12.6,1.2-22.1,0.9-22.4
		l-0.6-1.2L308,209.5z"/>
	<path class="st1" d="M315,224.6c0-4.2,0.5-10.9,3.2-16.8c0.6-1.3,1.2-2.4,1.8-3.3c4.4-6.7,9.6-10.1,12-11.3
		c0.3,1.1,0.5,2.7,0.5,4.8c0,3.5-0.8,8.3-3.9,13.6c-4.7,8.2-10.7,13-13.6,15C315,226.1,315,225.4,315,224.6 M332.4,190.1
		c-0.3,0.1-8.2,3.2-14.6,13c-0.7,1-1.3,2.2-2,3.6c-4.7,10.2-3.3,22-3.3,22.5l0.2,2l1.7-1c0.4-0.2,9.6-5.3,16.5-17.2
		c7-12.2,3.3-21.8,3.1-22.2l-0.5-1.2L332.4,190.1z"/>
	<path class="st1" d="M342.6,189.2c0.6-1.2,1.3-2.2,2-3.1c4.9-6.6,10.3-9.5,12.8-10.5c0.1,0.6,0.1,1.4,0.1,2.4
		c0,3.6-0.9,9.4-5.3,15.8c-5.4,7.8-11.5,12.3-14.6,14.3C337.9,204,338.9,195.9,342.6,189.2 M358.1,172.4c-0.3,0.1-8.4,2.4-15.6,12.1
		c-0.8,1-1.5,2.1-2.2,3.4c-5.4,9.8-5.4,22-5.4,22.5l0,2.2l1.9-1c0.4-0.2,9.7-4.9,17.7-16.4c8.1-11.7,5.4-21.5,5.3-21.9l-0.4-1.3
		L358.1,172.4z"/>
	<path class="st1" d="M370.2,169.1c5.5-6.5,11.1-8.9,13.6-9.8c0,0.1,0,0.1,0,0.2c0,3.1-0.8,10.1-7,17.8c-6,7.4-12.3,11.6-15.6,13.5
		C362.1,185.9,364.6,175.7,370.2,169.1 M384.8,156.2c-0.3,0.1-8.6,1.6-16.7,11.1c-8,9.4-9.9,25.1-10,25.7l-0.3,2.3l2.1-1
		c0.4-0.2,9.9-4.5,18.9-15.5c9.1-11.3,7.5-21.2,7.5-21.6l-0.2-1.3L384.8,156.2z"/>
	<path class="st1" d="M134.8,290c0-102.2,83.1-185.3,185.3-185.3c30.2,0,60.1,7.5,86.6,21.5c-3.9,4.4-19.2,21.9-21.6,24.6
		c-20.4-9.6-42.3-14.4-65-14.4c-84.7,0-153.6,68.9-153.6,153.6c0,37.8,12.8,72.3,37,99.9c-1.4,3.2-3.9,10.2-3.9,19.6
		c0,7.7,1.8,17,7.2,26.8C162,400.5,134.8,346.2,134.8,290 M128.7,290c0,65.2,35.3,128,92.1,163.8l2.4,1.5l1.7-2.2
		c0.5-0.6,0.7-1.2,0.7-1.8c0-1.4-1.2-2.5-1.9-3.1l-3.3-3.2c-11.7-13.3-14.9-25.9-14.9-35.6c0-10.7,3.8-17.9,4.1-18.4l1-1.9l-1.4-1.6
		c-24-26.8-36.7-60.5-36.7-97.5c0-81.3,66.2-147.5,147.5-147.5c22.6,0,44.3,5,64.5,14.8l2.1,1l29.7-33.8l-3.3-1.8
		c-28.3-15.7-60.4-24-93-24C214.6,98.6,128.7,184.4,128.7,290"/>
	<path class="st1" d="M387.3,151.8c-21-10.2-43.6-15.4-67.1-15.4c-84.7,0-153.6,68.9-153.6,153.6c0,38.5,13.2,73.6,38.3,101.5
		l2.6,2.9l11.7-17.7l-0.6-0.7c-1-0.1-1.9-0.3-2.5-0.4c0.2-0.5,0.4-1.1,0.7-1.8c-0.9-1.1-1.8-2.2-2.7-3.3c-0.9,1.5-1.8,2.6-2.4,3.3
		c-2.3-2.4-8.1-9.6-8.1-18.3c0-0.3,0-0.6,0-0.8c-10.9-19.2-16.5-40.9-16.5-64.8c0-73.5,59.8-133.3,133.3-133.3
		c18,0,35.4,3.5,51.8,10.4c1.8-1.8,3.5-3.2,5.1-4.4c-17.9-8-37-12.2-56.9-12.2c-76.8,0-139.4,62.5-139.4,139.4
		c0,33.3,10.4,62.6,30.8,87.2c-1.2,1.8-2.8,4.3-4.7,7.2c-22.3-26.3-34.2-58.8-34.2-94.4c0-81.3,66.2-147.5,147.5-147.5
		c21.6,0,42.4,4.6,61.8,13.6c-0.8,1.8-1.6,3.5-2.4,5.2c1.8-1,3.3-1.6,4.3-2c0,0.1,0,0.1,0,0.2c0,2.3-0.4,6.6-3.1,11.8l0.7,0.3
		l8.5-18.5L387.3,151.8z"/>
	<path class="st0" d="M385.9,121.7l-14.7,18.6c1.4,0.5,2.7,0.9,4,1.4l14.6-18.4C388.5,122.7,387.2,122.2,385.9,121.7"/>
	<path class="st0" d="M357.2,113.1l-8.6,21.2c1.4,0.2,2.7,0.5,4,0.8l8.5-21.1C359.8,113.7,358.5,113.4,357.2,113.1"/>
	<path class="st0" d="M323,109.3l-2.1,22.5c1.4,0,2.7,0,4.1,0.1l2.1-22.4C325.7,109.3,324.3,109.3,323,109.3"/>
	<path class="st0" d="M289.7,111.8l4.3,22.1c1.3-0.2,2.7-0.4,4-0.6l-4.3-22.1C292.3,111.4,291,111.6,289.7,111.8"/>
	<path class="st0" d="M257.3,120.5l10.1,20.3c1.3-0.5,2.6-0.9,3.9-1.3l-10.1-20.3C259.9,119.6,258.6,120,257.3,120.5"/>
	<path class="st0" d="M226.7,135.3l15.1,17.2c1.2-0.7,2.4-1.4,3.6-2l-15.2-17.3C229,133.9,227.8,134.6,226.7,135.3"/>
	<path class="st0" d="M198.8,156.1l19,13.2c1.1-0.9,2.2-1.8,3.2-2.7l-19.2-13.3C200.9,154.3,199.8,155.2,198.8,156.1"/>
	<path class="st0" d="M175.1,182.2l21.9,8.5c0.9-1.1,1.8-2.2,2.7-3.3l-22-8.6C176.8,180,175.9,181.1,175.1,182.2"/>
	<path class="st0" d="M156.8,212.6l23.5,3.3c0.7-1.3,1.4-2.5,2.1-3.8l-23.8-3.3C158,210.1,157.4,211.3,156.8,212.6"/>
	<path class="st0" d="M144.8,246l24-2.3c0.4-1.4,0.9-2.8,1.3-4.2l-24.3,2.3C145.5,243.2,145.2,244.6,144.8,246"/>
	<path class="st0" d="M139.6,280.9l23.2-8.1c0.2-1.5,0.3-3,0.5-4.5l-23.5,8.2C139.8,278,139.7,279.4,139.6,280.9"/>
	<path class="st0" d="M141.4,316.2l21-13.8c-0.1-1.5-0.2-3.1-0.3-4.6l-21.3,14C141,313.2,141.2,314.7,141.4,316.2"/>
	<path class="st0" d="M150.4,350.7l17-18.8c-0.4-1.6-0.8-3.1-1.2-4.7l-17.4,19.1C149.3,347.8,149.8,349.3,150.4,350.7"/>
	<path class="st0" d="M166.4,383.7l12-22.9c-0.8-1.5-1.5-3-2.2-4.5l-12.3,23.3C164.7,381,165.5,382.3,166.4,383.7"/>
	<path class="st0" d="M186.9,411.2l6.4-26.6c-1.1-1.4-2.1-2.8-3.1-4.3l-6.6,27.1C184.7,408.7,185.8,409.9,186.9,411.2"/>
	<path class="st0" d="M382.9,172.9c0.6,0.4,1.1,0.7,1.6,1.1c0.5-0.2,1-0.5,1.5-0.6c0.6-0.2,1.2-0.4,1.7-0.6
		c-1.2-0.8-2.4-1.7-3.5-2.7C383.9,171,383.4,171.9,382.9,172.9"/>
	<polygon class="st0" points="7.1,547.4 7.1,546.5 14.6,546.5 19.9,565 20,565 25.6,546.5 33.1,546.5 33.1,547.4 30.2,547.4 
		30.2,570.8 33.1,570.8 33.1,571.7 23.6,571.7 23.6,570.8 26.5,570.8 26.5,547.8 26.5,547.8 19.2,571.7 18.2,571.7 11.1,547.8 
		11.1,547.8 11.1,570.8 13.9,570.8 13.9,571.7 7.1,571.7 7.1,570.8 9.9,570.8 9.9,547.4 	"/>
	<path class="st0" d="M48.2,571.7v-0.8H45l2.7-8.3h7.2l2.6,8.3h-3v0.8h9.5v-0.8h-2.6l-7.8-24.6H52l-8.2,24.6h-3v0.8H48.2z M48,561.5
		l3.3-10.2h0.1l3.1,10.2H48z"/>
	<polygon class="st0" points="79,571.7 71.2,571.7 71.2,570.8 74.4,570.8 81,559.8 73.8,547.4 71.2,547.4 71.2,546.5 80.9,546.5 
		80.9,547.4 78.1,547.4 83.4,556.2 88.8,547.4 85.7,547.4 85.7,546.5 93.2,546.5 93.2,547.4 90.2,547.4 84.2,557.3 92,570.8 
		94.6,570.8 94.6,571.7 84.8,571.7 84.8,570.8 87.8,570.8 81.7,560.7 75.7,570.8 79,570.8 	"/>
	<rect x="102.5" y="562.3" class="st0" width="9.2" height="2.5"/>
	<path class="st0" d="M119.8,547.4h3v23.5h-3.2v0.8h10.3v-0.8h-3.4v-10.5h1.8c7.9,0,10.7-4,10.7-7.1c0-3.3-2.2-6.7-9.2-6.7h-10
		V547.4z M126.4,547.4h1.1c5.1,0,7.5,0.4,7.5,5.7c0,4.2-1.1,6.4-7.3,6.4h-1.3V547.4z"/>
	<path class="st0" d="M146.1,571.7v-0.8h3.1v-23.5h-3.1v-0.8h10.2v0.8h-3.5v23.5h6.7c3.1,0,4.6-3.8,5-6.2h0.7l-0.4,7H146.1z"/>
	<path class="st0" d="M179.1,571.7v-0.8h-3.2l2.7-8.3h7.2l2.6,8.3h-3v0.8h9.5v-0.8h-2.6l-7.8-24.6h-1.5l-8.2,24.6h-3v0.8H179.1z
		 M178.9,561.5l3.3-10.2h0.1l3.1,10.2H178.9z"/>
	<polygon class="st0" points="205.6,547.4 202.7,547.4 202.7,546.5 210,546.5 220.7,564.7 220.8,564.7 220.8,547.4 217.9,547.4 
		217.9,546.5 224.8,546.5 224.8,547.4 221.9,547.4 221.9,572.2 220.9,572.2 206.8,548.1 206.8,548.1 206.8,570.8 209.7,570.8 
		209.7,571.7 202.7,571.7 202.7,570.8 205.6,570.8 	"/>
	<path class="st0" d="M251.7,553.2l-0.8,0.1c-0.8-3.6-2.8-6.4-6.7-6.4c-2.4,0-4.3,1.7-5,3c-1.5,2.7-1.5,8.1-1.5,10.1
		c0,6.5,0.8,11.1,6.7,11.1c3.7,0,5.9-3,7-6.3h0.9v6.9h-1l-1.1-1.6c-1.8,1.5-3.8,2.1-5.9,2.1c-7,0-10.9-6-10.9-13.3
		c0-7.4,5.7-12.9,11.1-12.9c2.3,0,3.7,0.7,5.6,2l1.2-1.2l0.6,0.1V553.2z"/>
	<path class="st0" d="M270.9,571.7h-9.5v-0.8h2.9v-23.5h-2.9v-0.8h9.5v0.8H268v23.5h2.9V571.7z M275.2,547.4v-0.8h7.5v0.8h-2.8
		l-8.7,9.4l11.5,14h1.8v0.8h-9.6v-0.8h3l-9.6-12.2c-0.1-0.2,0-0.4,0.3-0.6l10-10.6H275.2z"/>
	<rect x="291.9" y="562.3" class="st0" width="9.2" height="2.5"/>
	<path class="st0" d="M328.5,546.8l0.6,0v6.4l-0.8,0c-0.8-3.7-3.5-6.4-7.7-6.4c-2.4,0-4.3,1.6-5,3c-1.5,2.7-1.6,8.1-1.6,10.2
		c0,6.5,0.8,11.3,6.8,11.3c5.2,0,5.4-3.5,5.3-7.7h-3.7v-0.9h10.2v0.9h-2.3c-0.3,4.2-2.1,8.6-9.7,8.6c-7,0-10.9-6-10.9-13.3
		c0-7.4,5.7-12.9,11.1-12.9c2.6,0,4.8,0.8,6.4,2.2L328.5,546.8z"/>
	<path class="st0" d="M339.5,571.7v-0.8h3.3v-23.5h-3.3v-0.8h19.1v6.1h-0.8c-0.6-4.5-3-5.3-6.4-5.3h-4.9v10.8c3.8,0,5,0,5.6-4h0.8
		v9.5H352c-0.2-4-1.8-4.5-5.6-4.6v11.7h4.6c5,0,6.6-0.6,7.6-6.2h1l-0.5,7.1H339.5z"/>
	<path class="st0" d="M368.7,571.8h-0.5v-6.5h0.7c1,3.4,3.6,6.1,7.2,6.1c3.2,0,6.3-2.1,6.3-5.4c0-2.2-0.5-3.2-3.4-4.4
		c-1.4-0.5-7.3-2.4-7.8-2.8c-2.2-1.4-3-3.6-3-5.7c0-1.5,0.5-2.9,1.5-4.3c1.1-1.5,3-2.7,5.9-2.7c1.7,0,4.2,1.1,4.9,1.6l1.4-1.1
		l0.5,0.1v5.8h-0.8c-0.8-3.1-3-5.6-6.4-5.6c-2.6,0-5.4,1.8-5.4,4.6c0,6.3,14.3,2.2,14.3,12.4c0,5.1-3.2,8.3-8.2,8.3
		c-2.1,0-4.2-0.6-5.8-2.1L368.7,571.8z"/>
	<path class="st0" d="M391.8,571.7v-0.8h3.3v-23.5h-3.3v-0.8h19.1v6.1h-0.8c-0.6-4.5-3-5.3-6.4-5.3h-4.9v10.8c3.8,0,5,0,5.6-4h0.8
		v9.5h-0.8c-0.2-4-1.8-4.5-5.6-4.6v11.7h4.6c5,0,6.6-0.6,7.6-6.2h1l-0.5,7.1H391.8z"/>
	<path class="st0" d="M420.3,571.7v-0.8h3.1v-23.5h-3.1v-0.8h10.2v0.8h-3.5v23.5h6.7c3.1,0,4.6-3.8,5-6.2h0.7l-0.4,7H420.3z"/>
	<path class="st0" d="M446.5,571.7v-0.8h3.1v-23.5h-3.1v-0.8h10.2v0.8h-3.5v23.5h6.7c3.1,0,4.6-3.8,5-6.2h0.7l-0.4,7H446.5z"/>
	<path class="st0" d="M473.3,571.8h-0.5v-6.5h0.7c1,3.4,3.6,6.1,7.2,6.1c3.2,0,6.3-2.1,6.3-5.4c0-2.2-0.5-3.2-3.4-4.4
		c-1.4-0.5-7.3-2.4-7.8-2.8c-2.2-1.4-3-3.6-3-5.7c0-1.5,0.5-2.9,1.5-4.3c1.1-1.5,3-2.7,5.9-2.7c1.7,0,4.2,1.1,4.9,1.6l1.4-1.1
		l0.5,0.1v5.8h-0.8c-0.8-3.1-3-5.6-6.4-5.6c-2.6,0-5.4,1.8-5.4,4.6c0,6.3,14.3,2.2,14.3,12.4c0,5.1-3.2,8.3-8.2,8.3
		c-2.1,0-4.2-0.6-5.8-2.1L473.3,571.8z"/>
	<path class="st0" d="M515.5,553.2l-0.8,0.1c-0.8-3.6-2.8-6.4-6.7-6.4c-2.4,0-4.3,1.7-5,3c-1.5,2.7-1.5,8.1-1.5,10.1
		c0,6.5,0.8,11.1,6.7,11.1c3.7,0,6-3,7-6.3h0.9v6.9h-1l-1.1-1.6c-1.8,1.5-3.8,2.1-5.9,2.1c-7,0-10.9-6-10.9-13.3
		c0-7.4,5.7-12.9,11.1-12.9c2.3,0,3.7,0.7,5.6,2l1.2-1.2l0.6,0.1V553.2z"/>
	<polygon class="st0" points="542.6,558.1 542.6,547.4 539.7,547.4 539.7,546.5 549.2,546.5 549.2,547.4 546.3,547.4 546.3,570.8 
		549.2,570.8 549.2,571.7 539.7,571.7 539.7,570.8 542.6,570.8 542.6,559.2 531.8,559.2 531.8,570.8 534.7,570.8 534.7,571.7 
		525.2,571.7 525.2,570.8 528.1,570.8 528.1,547.4 525.2,547.4 525.2,546.5 534.7,546.5 534.7,547.4 531.8,547.4 531.8,558.1 	"/>
	<path class="st0" d="M564.3,571.7v-0.8H561l2.7-8.3h7.2l2.6,8.3h-3v0.8h9.5v-0.8h-2.6l-7.8-24.6h-1.5l-8.2,24.6h-3v0.8H564.3z
		 M564,561.5l3.3-10.2h0.1l3.1,10.2H564z"/>
	<path class="st0" d="M587.8,571.7v-0.8h3.1v-23.5h-3.1v-0.8h18.4l0.3,6.7h-0.7c-1.2-4.6-1.8-5.8-6.5-5.8h-4.8v11
		c3.4,0,4.9-0.1,5.2-3.9h0.8v9.3h-0.8c-0.3-3.9-1.8-4.4-5.3-4.4v11.6h3.2v0.8H587.8z"/>
	<path class="st0" d="M618.1,571.7v-0.8h3.1v-23.5h-2.6c-3.6,0-4,2.7-4.7,6.4h-1l0.4-7.3h19.4l0.3,7.3h-1c-0.4-3.6-1.7-6.4-5.6-6.4
		h-1.7v23.5h3.1v0.8H618.1z"/>
	<line class="st2" x1="6.8" y1="533.1" x2="633.4" y2="533.1"/>
</g>
</svg>
